<svg xmlns="http://www.w3.org/2000/svg" viewBox="0 0 818.77 826.54"><g id="Layer_2" data-name="Layer 2"><g id="Layer_1-2" data-name="Layer 1"><path d="M337.31,176.71A88.36,88.36,0,0,1,338,0c48.13,0,88,40,88,88.32C426,137.09,386.26,176.7,337.31,176.71Z"/><path d="M140.89,151.15c46.47,0,84.1,37.21,83.65,83.68-.44,45.53-36.57,82.11-82.9,82.47C96,317.65,58.41,280,58.34,234.4S95.6,151.19,140.89,151.15Z"/><path d="M0,452.81c-.74-41.51,34.08-76.91,76.14-77.67,43.55-.79,79.71,34.86,79.41,78.55-.3,42.29-35.3,77-78.14,77.08C34.86,530.85-.82,495.15,0,452.81Z"/><path d="M234.16,653.32a72.61,72.61,0,1,1-72.48-72.65A72.67,72.67,0,0,1,234.16,653.32Z"/><path d="M343,826.54c-37,0-67.56-30.23-67.31-67.29.25-37.37,29.19-67.29,67.23-67.35A67.32,67.32,0,1,1,343,826.54Z"/><path d="M532.14,818.71c-34.63,0-62.37-27.28-62.39-61.46,0-34.69,27.53-62.53,61.89-62.53a62.29,62.29,0,0,1,62.2,61.87C594.23,789.58,566.48,819.26,532.14,818.71Z"/><path d="M667.11,719.39c-31.18,0-57.62-26.23-57-57.26a57,57,0,0,1,57.19-56.49c28.56,0,56.76,22.85,56.66,56.91C723.85,695,698.37,718.8,667.11,719.39Z"/><path d="M803.73,544.1c.18,28-23.13,51.7-51,51.88-28.59.18-52.15-23-52.28-51.36s22.94-51.86,51.19-52A51.74,51.74,0,0,1,803.73,544.1Z"/><path d="M818.77,412.3c0,25.78-20.94,46.79-46.36,46.48s-46.16-21-46.18-46.07c0-25.82,20.64-46.77,46.15-46.83A46.17,46.17,0,0,1,818.77,412.3Z"/><path d="M788.12,294.27c.65,21.06-16.54,40.82-40.82,41.13-22.42.27-41.37-19-41.14-41.07.24-23.37,18.23-41.08,41.68-41C770.41,253.34,788.13,271.36,788.12,294.27Z"/><path d="M727.48,204.46c0,19.67-16.29,35.83-35.82,35.62-19.78-.22-36-16.34-35.89-35.76a36.16,36.16,0,0,1,36-36A35.73,35.73,0,0,1,727.48,204.46Z"/><path d="M619.44,167.28c-17,0-31-13.94-30.74-30.65a31.2,31.2,0,0,1,30.83-30.41c16.71,0,30.91,14.31,30.68,30.88A30.48,30.48,0,0,1,619.44,167.28Z"/><path d="M285.22,468.9c-23.67,0-42.18-19.11-42.22-43.58,0-24.95,18.48-44.44,42.24-44.43s42.31,19.59,42.23,44.47C327.38,449.78,308.82,468.91,285.22,468.9Zm-20.55-44c-.06,13,7.71,23,18.46,23.77,11.31.78,20.45-7,22.4-19.13,2-12.63-4.85-25.1-15.34-27.77C276.35,398.24,264.74,408.77,264.67,424.89Z"/><path d="M690.51,409.73c-4.57-2.94-8.66-6.39-13.74-8.19-13.82-4.87-28.67,1.83-32.2,14.71-4.32,15.77,3.41,30.28,17.71,33.2a23.35,23.35,0,0,0,11.69-.84c3.4-1,2.84-3.76,2.88-6.27,0-2.94-1.53-4.19-4.34-4.17a8.08,8.08,0,0,1-1.39,0c-3.06-.45-7.31,1.32-8.78-2.34-1.72-4.29-1.22-9.18-.18-13.72.55-2.44,3.12-2.49,5.22-2.5,8.13,0,16.26,0,24.39,0,4.11,0,5.75,2,5.7,6-.12,10.22,0,20.44,0,30.66,0,2.21-.42,4-2.6,5.24-15.3,8.61-42.89,12.62-59.72-4.31a45.44,45.44,0,0,1-9.49-50.75c7.26-16.69,24.61-26.87,43.36-25.45a30.83,30.83,0,0,1,3.46.42C696.34,386,695.2,388.58,690.51,409.73Z"/><path d="M416,423.88c0-10.93.22-21.87-.09-32.78-.15-5.62,1.71-8,7.53-8,10.24.12,20.48,0,30.57,1.89,20.64,3.86,34.56,20.84,33.74,40.83-.87,21.31-17.08,38.52-38.28,40-9.26.65-18.6.12-27.89.3-4.32.08-5.62-2.05-5.59-6,.11-12.09,0-24.18,0-36.27Zm20.48,1c0,5.8.07,11.61,0,17.42-.06,3.59,1.68,4.78,5.1,5,13.44.84,24.48-8.8,24.64-21.74.18-14-9.75-23.22-24.15-22.71-4.27.15-5.73,2-5.61,6C436.56,414.22,436.44,419.56,436.45,424.91Z"/><path d="M590.46,427.25c0-13.4.33-25-.12-36.56-.29-7.49,4.08-7.58,9.37-7.47s10.11-.58,10,7.58c-.37,24.15-.07,48.32,0,72.47,0,1.83.58,4.27-1.51,4.91-2.5.78-4.21-1.53-5.86-3.07-13-12.22-26-24.51-39-36.74-1.28-1.2-2.28-3.64-4.34-2.79s-1.12,3.31-1.14,5.05c-.1,9.29-.29,18.59,0,27.87.18,5.64-1.76,8.33-7.6,7.69a18.9,18.9,0,0,0-4.87,0c-5.63.85-7.35-1.94-7.33-7.09,0-18.11-.07-36.23-.11-54.35,0-5.57,0-11.15.08-16.72,0-2-.38-4.64,1.74-5.69,2.59-1.29,4.27,1.17,5.87,2.66,11.72,10.92,23.36,21.93,35,32.91Z"/><path d="M398.74,466.14c-5.14.93-10.35,0-12.49-7.23-.9-3-3.39-4.11-6.55-4.05-5.33.12-10.68.23-16,0-6.82-.35-13.11-.32-15.13,8.22-.64,2.67-3.16,3.09-5.63,3.08-3.48,0-7-.08-10.44,0-4.95.15-5.49-1.88-3.45-5.95,12.16-24.26,24.19-48.57,36.33-72.84,1-2,1.52-5.1,4.23-4.95,2.52.14,3.1,3.09,4.1,5.16,10.88,22.53,21.69,45.09,32.69,67.56C411.82,466.23,412,466.16,398.74,466.14Zm-29.22-47.59-1.83.05c-1.24,2.94-2.71,5.8-3.68,8.82-1.1,3.42-5.3,7.09-3,10,2.58,3.3,7.78,1.07,11.83,1.28,2.93.15,4.38-1.2,3.1-4.33C373.79,429.12,371.66,423.83,369.52,418.55Z"/><path d="M210.33,416c0,8.12.22,16.24-.07,24.35-.18,5,1.5,7.25,6.74,7,6-.28,12.07.12,18.09-.09,5-.17,7.06,1.69,7.19,6.84.3,11.78.26,12-11.6,12-11.37,0-22.74-.19-34.1.06-5.17.11-6.88-1.89-6.84-6.94q.24-34.44,0-68.89c0-5,1.69-7.46,6.81-7.11.69,0,1.39,0,2.08,0,11.68-.21,11.7-.19,11.71,11.2Q210.35,405.24,210.33,416Z"/><path d="M499.74,424.52c0-11.17.22-22.33-.07-33.49-.15-5.63,1.78-8.36,7.59-7.79a26,26,0,0,0,2.79,0c10.82,0,11,.14,11,10.82,0,21.16-.18,42.32.13,63.48.09,6.67-2.16,9.55-8.87,8.62a16.25,16.25,0,0,0-4.18,0c-6.24.77-8.76-1.63-8.5-8.17C500,446.85,499.73,435.68,499.74,424.52Z"/></g></g></svg>